<svg xmlns="http://www.w3.org/2000/svg" viewBox="0 0 138.4 37"><style type="text/css">  
	.st0{fill:#CF0A2C;}
</style><path class="st0" d="M124.5 1.3v2c5 0.6 6.1 2.4 6.1 7.4v15.5h-0.3L111.6 1.3h-11.2H86.9v2c5 0.6 6.1 2.4 6.1 7.4v13.2c0 4-0.8 5.9-2.5 7.7C89 33 87 33.8 84.4 33.8c-5.7 0-9.2-2.6-9.2-8.8V5.6c0-1.7 1-2.1 4.6-2.3v-2h-2.7 -6.5 -7.7c-2 0-2.5 0-4.5 0 -1.1 0-3.3 0-4.4-0.2 -1.1-0.2-2.4-0.7-3.5-0.9C49.3 0.1 48.1 0 46.9 0c-6.8 0-11.4 4.9-11.4 11.5 0 6.5 5.3 8.6 10.6 10.3 6.1 2 8.4 3.4 8.4 7 0 2.8-1.9 5.9-6.5 5.9 -4.4 0-7.7-2.7-10.4-8.7H35V37h2.2l1.8-1.6c2.1 1 5.3 1.6 8.2 1.6 8.9 0 12.4-6 12.4-11.9 0-6.6-5.2-8.6-10.1-10.2 -5.8-1.9-8.4-3-8.4-6.6 0-3.4 2.4-5.6 5.6-5.6 3.9 0 7.1 1.3 8.8 6.3h2.2v-1c0-2.6 2-4.7 5-4.7s5 2.1 5 4.7v6 9.8 1.3C68 33 73.4 37 82.3 37c8.9 0 13.5-5.1 13.5-12V8.1c0-2.6 1.9-4.7 5-4.7 3.1 0 5 2.2 5 4.7v18.7c0 5-0.7 6.7-5.4 7.4v2h13.7v-2c-5.1-0.6-5.7-2.4-5.7-7.4V9l0.2 0 21.2 28h3.5V10.6c0-4.9 0.4-6.7 5.1-7.4v-2H124.5z"/><path class="st0" d="M19.5 33.7C13.9 33.7 8 28.7 8 18.1 8 7.8 12.8 2.5 18.3 2.5c4.6 0 8.2 3.9 10.3 10.3H31V0.3h-2.1l-1.5 2.3c-2.2-1.2-5.5-2.3-8.8-2.3C8 0.3 0 8.2 0 19 0 29.5 6.4 37 17.5 37c7.6 0 12.4-4.2 14.9-10l-2-1C27.9 31.2 24.4 33.7 19.5 33.7"/></svg>