<svg xmlns="http://www.w3.org/2000/svg" viewBox="0 0 1097.8 1090.2"><style type="text/css">  
.st0{fill:#CF0D2D}.st1{fill:#FEFEFE}.st2{fill:#020202}.st3{fill:#DBDBDB}.st4{fill:#909090}.st5{fill:#FEFDFD}.st6{fill:#FEFCFD}.st7{fill:#FEFCFC}.st8{fill:#FEFBFC}.st9{fill:#F1BEC6}.st10{fill:#F3C6CE}.st11{fill:#FBF0F2}.st12{fill:#F4CDD4}.st13{fill:#FAEAEC}.st14{fill:#FBECEE}.st15{fill:#D93E58}.st16{fill:#D52A46}.st17{fill:#F8DFE3}.st18{fill:#EFB0BA}.st19{fill:#D73752}.st20{fill:#F6D3D8}.st21{fill:#D93F58}.st22{fill:#D93D57}.st23{fill:#EA9AA7}.st24{fill:#DF6075}.st25{fill:#F5CFD5}.st26{fill:#FBEEF0}.st27{fill:#D7324D}.st28{fill:#DD576D}.st29{fill:#EBA0AC}.st30{fill:#DC4F67}.st31{fill:#DD5369}.st32{fill:#DE576E}.st33{fill:#DD566C}.st34{fill:#DE576D}.st35{fill:#E16B7F}.st36{fill:#DD546B}.st37{fill:#E993A2}.st38{fill:#EDA9B4}.st39{fill:#E88B9A}.st40{fill:#ECA0AD}.st41{fill:#ECA1AD}.st42{fill:#E1687C}.st43{fill:#ECA1AE}.st44{fill:#EB9EAB}.st45{fill:#ECA3AE}.st46{fill:#EB9CA9}.st47{fill:#E78494}.st48{fill:#EEADB8}.st49{fill:#ECA3AF}.st50{fill:#E16A7D}.st51{fill:#ECA2AE}.st52{fill:#E16A7E}.st53{fill:#FDFDFD}.st54{fill:#D32340}.st55{fill:#D9415A}.st56{fill:#D83953}.st57{fill:#D83C55}.st58{fill:#D83A54}.st59{fill:#D42743}.st60{fill:#D52C47}.st61{fill:#DC5168}.st62{fill:#DF5C72}.st63{fill:#D52B47}.st64{fill:#D42744}.st65{fill:#D3223F}.st66{fill:#D42542}.st67{fill:#D7334E}.st68{fill:#D11836}.st69{fill:#D73650}.st70{fill:#DC4D64}.st71{fill:#D6314C}.st72{fill:#D52945}.st73{fill:#D42844}.st74{fill:#D52844}.st75{fill:#D62F4B}.st76{fill:#D83B55}.st77{fill:#D6324D}.st78{fill:#D6304C}.st79{fill:#DC5067}.st80{fill:#D21D3B}.st81{fill:#D31F3D}.st82{fill:#D73852}.st83{fill:#D21D3A}.st84{fill:#D42945}.st85{fill:#D3203D}.st86{fill:#D94059}.st87{fill:#D6304B}.st88{fill:#DB4A62}.st89{fill:#D62F4A}.st90{fill:#DB4B62}.st91{fill:#E1667A}.st92{fill:#DB4961}.st93{fill:#DE586E}.st94{fill:#D83C56}.st95{fill:#F0B6C0}.st96{fill:#F1B9C2}.st97{fill:#F1BAC3}.st98{fill:#EEAFB9}.st99{fill:#F1BBC4}
</style><path class="st0" d="M548.9 1090.2c-97.4-0.3-189-23.4-273.2-72.5C143.9 940.8 57.4 828.4 17.6 680.9 1.4 621-3.5 559.8 2.4 498.1c13.7-144.2 75-264.7 183-361 68.4-61 147.8-101.4 237-122.4C478.7 1.3 535.8-2.9 593.5 1.9c108.2 8.9 205.7 46 291.4 112.5 104.2 80.9 171.1 186 200.2 314.9 10.8 47.9 14.6 96.5 11.7 145.5 -6.9 117.4-47.4 222.1-121.6 313.4 -57.6 70.9-128.9 123.8-213 159.3 -41.4 17.5-84.4 29.5-128.8 36.3C605.5 1088.1 577.3 1090.5 548.9 1090.2z"/><path class="st1" d="M549.3 26c211 0 402 126.6 482.3 319.5 19.6 47 32.6 95.8 37.3 146.4 13.1 143.2-25.1 271.4-116.3 382.8 -63.1 77.1-142.9 131-237.3 162.8 -62.2 20.9-126.3 30-191.8 26.2 -142.7-8.2-263.5-64.4-360.7-169.1 -68-73.3-111.5-159.8-128.1-258.5C8.9 483.8 43.3 345.6 138.7 224 207 136.8 295.6 78.2 402 46.8 450 32.6 499.2 25.9 549.3 26z"/><path class="st0" d="M1047.1 558.4c-3.3 139-61.5 265.7-177.5 364.9 -50.8 43.5-108.8 74.5-172.7 94.2 -67.1 20.6-135.6 27.2-205.4 18.8 -123.1-14.8-227-67.9-311-158.8C115.7 807.3 74.3 724.5 58.7 630.2c-24-145.5 9.4-277.2 101-392.9C222 158.5 302.1 104.4 397.8 73.8c60.5-19.3 122.5-26.7 185.8-21.9 135.3 10.2 248.7 66 339.2 166.8 60.4 67.3 98.5 146 115.5 234.9C1044.1 483.9 1046.6 514.4 1047.1 558.4z"/><path class="st1" d="M548.8 965.1c-177 0-335.1-109.5-396.6-275C131 633.3 122.8 574.4 127.4 514c11.9-156.7 110.5-293.7 255.2-355 63.6-27 129.9-37.8 198.6-32.6C750.5 139.3 895 250.9 949.5 410.5c21.6 63.4 27.6 128.3 17.8 194.6C952.7 704 908 787.2 834.5 854.7c-57.4 52.8-125 86.4-201.3 102.1C605.4 962.5 577.2 965.3 548.8 965.1z"/><path class="st1" d="M819.3 951.1c-29.3 19.6-60.1 35.3-92.6 47.8 -50.9 19.6-103.7 30.7-158.7 32.6C622.1 952.4 730.3 919.7 819.3 951.1z"/><path class="st1" d="M64.1 474c14.1-90.7 50-170.1 108.5-240.8 10.4 50.4 5.2 97.9-16.7 143.2C135.8 418.2 105.2 450.4 64.1 474z"/><path class="st1" d="M682.2 76.5c88.1 25.3 163 71 225.9 137.4C826.6 223.1 724.6 178.8 682.2 76.5z"/><path class="st1" d="M408.2 78.6c88.2-25.4 176-26.9 264.8-4.7C597.3 133.5 486.4 135.3 408.2 78.6z"/><path class="st1" d="M1033.8 473.6c12.7 90.4 1.9 176.8-33.4 261.4 -19.2-34.5-28.6-70.5-28.6-109.1C971.7 565.6 998 509.6 1033.8 473.6z"/><path class="st1" d="M62.6 485.2c31.9 32.2 52.5 69.3 61.2 112.5 10.4 51.5 3.2 100.8-21.3 148.4C65 662.6 52.1 576.4 62.6 485.2z"/><path class="st1" d="M179.2 225.6c61.3-68.8 134.7-116.7 221.5-144.6 -12.4 38.6-45.1 83.7-91 111.5C269.9 216.6 226.9 227.5 179.2 225.6z"/><path class="st1" d="M298 963.4c81.9-34 192.2-12.4 255.3 68.6C461.8 1032.3 377.2 1009.6 298 963.4z"/><path class="st1" d="M997.6 741.5c-37.8 83.3-93.6 150.4-167.9 202.8C830.8 858.9 895.6 766 997.6 741.5z"/><path class="st1" d="M1032.2 463.9c-94.8-49.5-131.2-155.1-112.9-237.5 29.7 34 53.9 70.9 73 111.2C1011.4 377.8 1024.7 419.7 1032.2 463.9z"/><path class="st1" d="M106.9 755.6c96.2 19.9 167.4 102.5 174.9 197.8C205.5 903.2 147.3 837.7 106.9 755.6z"/><path class="st0" d="M549.1 207.2c187.8 0 340.1 151.4 340 338.1 -0.1 186.8-152.6 338-340.8 337.8C360.9 883 208.9 731.5 208.9 545 209 358.3 361.1 207.2 549.1 207.2z"/><path d="M916.2 413.4c-7.9 2.5-15.1 4.7-22.3 7 -4 1.3-7.8 3.1-11.9 3.7 -6.6 0.8-3.4-5.9-5.7-8.6 -1.1-1.3-2.3-3.6 1.4-4.7 12.1-3.6 24-7.8 36-11.7 4.7-1.6 9.5-3 14.2-4.7 2.9-1.1 4-0.2 5 2.6 4.6 13.4 4.7 13.3-5 23.8 -6.7 7.3-13.4 14.7-20.7 22.7 8.4-2.7 16.3-5.2 24.3-7.7 0.9-0.3 1.9-0.6 2.8-0.9 11.1-3.6 11-3.6 13.6 7.9 0.4 1.9-0.1 2.7-1.8 3.2 -17.2 5.5-34.4 11.1-51.6 16.7 -1.9 0.6-3.2 0.7-3.6-1.7 -0.1-0.5-0.3-0.9-0.6-1.4 -4.3-7.7-2.9-13.8 3.8-19.9 7-6.4 12.8-14 19.1-21.1C914.2 417.4 915.8 416.5 916.2 413.4z"/><path d="M174.2 542c-9.7 0-21-0.2-32.2 0.1 -3.5 0.1-4.5-0.8-4.7-4.3 -0.4-9.9-0.5-10 9.3-10.4 15.6-0.7 31.3-1.2 46.9-2 2.5-0.1 3.4 0.5 3.6 3.2 0.8 12.5 0.9 12.5-9.6 19.2 -10 6.4-20.1 12.7-28.5 18.1 10.4 0 22.4 0.2 34.4-0.1 3.9-0.1 5 0.8 5 4.7 0.1 9.5 0.3 9.4-9.2 9.7 -15.3 0.5-30.6 1.2-45.9 2 -3.3 0.2-3.7-0.9-4.3-4 -2.1-10.6 1.6-17.1 11.5-21.8C159.3 552.2 167.3 546.2 174.2 542z"/><path d="M516.3 173c-1.4-10.4-2.8-20.8-4.3-31.2 -0.4-2.5-0.3-3.6 2.7-4.2 11.1-2 11-2.2 12.4 9 2 15 4.1 30 6.4 45 0.5 2.9-0.2 3.8-2.9 4 -3 0.3-6 0.7-8.9 1.2 -2.6 0.5-4.2-0.1-5.9-2.3 -8.5-10.9-17.2-21.6-25.8-32.4 -2.5-0.2-1 1.3-1 2.2 1.4 10.6 2.6 21.1 4.3 31.7 0.7 4-0.9 4.8-4.2 5.1 -9.5 0.9-9.5 1-10.8-8.3 -2.1-15.2-4.1-30.4-6.4-45.5 -0.4-2.9 0.3-4 3.1-4.1 0.2 0 0.3 0 0.5-0.1 10.3-3.6 17.2-0.3 22.8 9.1 4.8 8.1 11.3 15.2 17 22.8C517.2 175.1 516.6 174 516.3 173z"/><path d="M645.9 911c7 3.5 10.5 8.7 10.3 16.1 -0.2 6.8-4.1 11.7-10.7 13.2 -8.3 1.9-16.6 3.4-24.9 5.1 -8.9 1.9-14.6 0-18.2-6.3 -3.7-6.4-2.8-13.3 2.7-19.9 -7.7-3.9-11.6-9.9-10-18.6 1-5.7 4.3-9.6 10.2-10.8 8.3-1.7 16.6-3.4 24.9-5.1 9.5-1.9 14.4-0.3 18.2 6.1C652.2 897.4 651.5 903.8 645.9 911z"/><path d="M829.4 835.4c0.2 5.8-2.4 11.3-7.6 15.6 -6.9 5.7-13.9 11.4-20.7 17.3 -2.3 2-3.7 2.2-5.4-0.5 -0.7-1.1-1.6-2.2-2.6-3 -2.1-1.8-1.4-3 0.5-4.6 5.4-4.2 10.6-8.6 15.8-13 6.8-5.7 7.6-11.6 2.3-18.7 -3-4-6.3-7.7-9.8-11.3 -3.1-3.2-7.1-3.8-10.9-1.3 -3.7 2.5-7.1 5.5-10.7 8.2 -1.6 1.2-0.9 2.1 0.1 3.2 1.8 2 3.6 4 5.1 6.1 1.3 1.8 2.3 1.8 3.9 0.4 2.2-2 4.8-3.7 6.8-5.8 2.3-2.4 3.8-1.9 5.4 0.6 0.8 1.2 1.8 2.4 2.9 3.4 1.5 1.4 1.1 2.3-0.3 3.5 -6.4 5.3-12.9 10.5-19.2 16 -1.6 1.4-2.4 0.9-3.5-0.4 -6.7-8.1-13.4-16.1-20.2-24.1 -1.4-1.6-1-2.4 0.4-3.6 7.7-6.3 15.2-13 23.2-18.9 8.2-6.1 20.2-5.4 28.2 1.9C824.3 816.5 829.4 823.7 829.4 835.4z"/><path d="M299.4 863.3c-14.7 0.1-32.4-16.5-33.1-29 -0.3-4.5 1-8.6 3.9-12.1 8.5-9.9 17.1-19.6 25.5-29.5 1.6-1.8 2.5-1.8 4.4-0.3 8.7 6.9 8.8 6.8 1.7 15.1 -2.4 2.8-4.7 5.6-7.3 8.3 -1.9 2-1.5 3.1 0.5 4.7 4.2 3.3 8 7 12.2 10.4 2.1 1.7 2.5 2.8 0.5 5.1 -4.9 5.6-4.7 5.7-10.3 0.9 -3.3-2.8-6.6-5.6-9.8-8.5 -1.6-1.5-2.5-1.3-4 0.2 -5.9 6.1-5.9 8.3 0.4 13.7 2 1.7 4 3.5 6.1 5.2 4.6 3.9 7.3 3.8 11.4-0.8 7.8-8.9 15.7-17.7 23.3-26.8 2.2-2.7 3.6-3.3 6.6-0.7 7.3 6.5 7.5 6.3 1 13.8 -6.9 7.9-13.8 15.8-20.7 23.8C307.8 861.1 303 863.2 299.4 863.3z"/><path d="M143 474.1c0.9-4.2 1.7-10.7 3.6-16.8 3.3-10.5 13.1-15.7 24-13.6 11.6 2.2 23.2 4.4 34.8 6.4 3.2 0.6 3.9 1.6 3.2 4.9 -2.2 9.7-2 9.8-11.8 8 -2-0.3-3.9-0.7-5.9-1 -8.4-1.5-8.4-1.5-9.9 6.7 -0.5 2.5-1 4.9-1.5 7.3 -1.4 6.7-3.9 7.8-10.3 5.2 -2.3-1-1.2-2.5-1-3.7 0.8-5.2 1.9-10.5 2.9-15.7 0.5-2.3 0.4-3.4-2.5-4 -8.1-1.6-9.7-0.8-11.3 7.2 -0.5 2.8-1 5.6-1.4 8.4 -0.9 5.5 0.5 7.7 5.9 8.8 11.9 2.4 23.8 4.7 35.8 6.7 3.3 0.6 4.4 1.2 3.7 4.9 -2 9.9-1.8 9.9-11.5 8.1 -10.4-2-20.9-3.9-31.4-5.8C149.2 494.4 142.7 486.2 143 474.1z"/><path d="M240.1 281.4c0-0.4 0-1.3 0.1-2.1 1.3-10.7 18.2-26.5 29-27.3 5.6-0.4 10.4 1.3 14.6 5.2 8.9 8.5 17.9 17 27 25.2 2.4 2.2 2.1 3.3 0 5.4 -7.2 7.4-7 7.4-14.6 0.6 -3.5-3.2-6.6-9.2-10.7-8.8 -3.5 0.3-6.6 6-9.8 9.4 -0.3 0.4-0.7 0.7-1 1.1 -4.8 5-4.7 4.9-9.8 0.4 -2.4-2.1-2.6-3.4-0.2-5.6 3.8-3.5 7.1-7.5 10.7-11.2 1.7-1.7 2.2-2.7 0.1-4.7 -5.9-5.7-7.8-5.8-13.5 0.1 -1.8 1.9-3.7 3.8-5.5 5.8 -4.3 4.6-4.3 7.1 0.2 11.4 8.7 8.3 17.4 16.5 26.3 24.5 2.7 2.4 2.4 3.7 0.1 6.1 -6.9 7.1-6.8 7.2-14.2 0.3 -7.7-7.2-15.3-14.3-23-21.6C241.8 291.7 240.1 287.4 240.1 281.4z"/><path d="M927.5 569.5c-2.4 5.6-7.2 7.2-12.5 7.5 -2.5 0.2-5 0.1-7.5 0.1 -7.3 0-7.3 0-7.4-7.2 0-6.9 0-6.9 6.6-6.9 2.8 0 5.7 0.1 8.5-0.1 5.5-0.3 8.5-3.4 8.7-8.9 0.1-1.5 0-3 0-4.5 0-6.6 0-6.4 6.4-6.7 3.4-0.1 4.8 0.6 4.5 4.3 -0.3 3.5-0.1 7 0.1 10.5 0.3 4.2 3 6.3 7 6.3 4.1 0.1 6.7-2.3 7-6.3 0.4-5 0.1-10 0-15 0-3.5-2.7-2.2-4.4-2.2 -13.3 0-26.7 0-40 0.4 -3.8 0.1-4.7-1-4.6-4.7 0.2-9.4 0-9.4 9.5-9.6 15.2-0.2 30.3-0.2 45.5-0.5 3.3-0.1 4.7 0.5 4.6 4.3 -0.2 10.7 0.2 21.3 0.2 32 0 8.6-4.1 13.6-12.5 15.6C938.6 580.1 931.4 577.1 927.5 569.5z"/><path d="M562.4 893.8c6.8 0 13.7 0.1 20.5-0.1 2.9-0.1 3.5 0.9 3.5 3.7 0 8.7 0.2 8.7-8.4 8.7 -7.3 0-14.7 0.1-22-0.1 -2.9-0.1-3.6 0.9-3.6 3.7 0 7.7-0.2 7.7 7.6 7.7 4 0 8-0.1 12 0 6.7 0.2 13.2 1.2 16.3 8.3 3.3 7.5 2.5 15-1.7 22 -2.2 3.6-5.9 5.3-10.2 5.4 -11.8 0.1-23.7 0-35.5 0.1 -2.1 0-2.8-0.5-2.9-2.8 -0.5-10.2-0.6-10.2 9.5-10.2 6.7 0 13.3 0 20 0 3.6 0 6.8-0.3 6.9-5.1 0-4.7-3.1-5.9-7-5.9 -8.5-0.1-17-0.2-25.5 0 -3 0.1-4-0.6-3.9-3.8 0.2-9.3 0.2-18.7 0-28 -0.1-3.2 0.9-3.9 3.9-3.8C548.7 894 555.5 893.8 562.4 893.8z"/><path d="M724.8 211.4c3.9 4.2 3.8 8.7 2.2 13.1 -1.6 4.4-3.6 8.6-5.4 12.8 -0.3 0.8-0.5 2.1-2 1.4 -3.5-1.6-7-3-10.5-4.6 -1.7-0.8-0.7-1.9-0.3-2.9 1.6-3.7 3.3-7.3 4.7-11 2.3-5.8 0.8-9.5-4.9-12.1 -1.4-0.6-2.7-1.6-4.1-1.8 -5.7-1-5.3-3.9-3.2-8.3 1.5-3.2 2.7-4.3 6.1-2.3 2.8 1.7 6 2.8 9.1 3.9 4.1 1.5 7.3-0.1 9.2-3.7 1.8-3.2 0.1-7.4-3.6-9.2 -4.8-2.3-10.1-6.6-14.4-5.8 -4.2 0.8-4.7 8.3-6.9 12.8 -4.1 8.9-8 17.9-11.8 26.9 -1.1 2.7-2.1 3.9-5.4 2.4 -9.5-4.2-9.6-4-5.3-13.8 6-13.7 12.1-27.3 17.9-41 1.2-2.9 2.3-3.7 5.5-2.2 9.6 4.5 19.4 8.5 29.2 12.8 8.1 3.6 11.2 8.9 9.9 16.8C739.3 204.7 733.7 210.3 724.8 211.4z"/><path d="M184.9 710.5c-6.9 0.2-12.3-2.6-16.3-8.1 -5.2-7.3-8.3-15.5-9.4-24.3 -0.9-7.3 1.7-13.4 7.6-17.9 8.4-6.4 18-10 28.4-10.9 7.6-0.6 14 2.2 18.8 8.3 5.1 6.6 8 14.2 9 22.4 1 8.7-2.2 15.6-9.4 20.6C205 706.6 195.5 710 184.9 710.5z"/><path d="M877.7 733.3c-5 3.9-10 3.3-14.9 1 -1.2-0.5-2.5-1-3.6-1.6 -10.3-4.9-10.3-4.9-4.5-14.9 1.1-2 2-2.1 3.9-1.1 3.5 1.9 7.1 3.6 10.7 5.2 5.5 2.4 9.2 1 12-4.2 0.6-1.2 1.2-2.4 1.8-3.5 3.1-6.3 5.4-6.7 11.2-2.4 1.7 1.3 1 2.2 0.4 3.3 -1.6 3.3-3.3 6.5-4.8 9.8 -1.8 4-0.5 8.2 2.9 9.9 3.5 1.8 7.9 0.2 9.9-3.9 2.3-4.6 6.7-9.9 5.8-13.8 -1-3.9-8.2-5-12.8-7.3 -8.9-4.4-17.9-8.7-26.9-12.9 -2.2-1-2.8-1.8-1.7-4.4 4.7-10.1 4.6-10.2 14.7-5.2 13.3 6.4 26.5 13 39.9 19.3 3.1 1.4 3.9 2.5 2.2 5.8 -4.9 9.4-9.4 19.1-14.1 28.6 -3.8 7.7-9.8 10.5-18 8.7C883.2 747.9 878.1 742.1 877.7 733.3z"/><path d="M173.8 597.3c1.1-5.3 4.7-7.9 9.5-9.3 4-1.1 8.1-1.8 12.1-2.9 3.1-0.9 4 0.5 4.6 3.2 2.1 10 2.2 9.9-7.6 11.9 -2.3 0.5-4.6 0.9-6.8 1.7 -4.2 1.5-6 4.6-5.4 9 0.3 2.1 0.6 4.3 1.3 6.3 1.5 4.1 0.3 5.7-4 6.5 -4.1 0.8-6.5 0.9-6.7-4.3 -0.1-2.9-1-5.9-1.8-8.8 -1-3.8-4.8-6.4-8.3-5.4 -4 1.1-6.1 3.8-5.6 8.2 0.1 0.7 0.2 1.3 0.3 2 1.1 4.7 0.7 11.5 3.6 13.4 2.8 1.9 9-1.1 13.7-2 9.9-2 19.9-3.9 29.8-6 2.9-0.6 4-0.1 4.6 2.9 2 10.3 2.1 10.2-8.3 12.3 -14.8 2.9-29.7 5.9-44.4 9.1 -3 0.6-3.9 0.2-4.5-3 -1.8-10.1-4-20.2-6.1-30.3 -2-9.7 0.3-15 8.4-18.9C160.5 589.1 168 590.6 173.8 597.3z"/><path d="M895.7 488c-0.1-12.9 5.2-20.8 16.7-24.6 8.6-2.8 17.4-4.3 26.6-2.6 7.8 1.4 12.9 5.8 15.6 13.1 2.7 7.4 4 15.1 3.4 23 -0.5 7.3-3.9 13.1-10.5 16.5 -9.6 4.9-19.9 6.7-30.5 5.1 -12.3-1.8-18.8-9.9-20.8-24.5C895.9 491.8 895.9 489.5 895.7 488z"/><path d="M853.4 335.9c10.9-2.6 20.6-4.8 30.2-7.3 3.4-0.9 4.1-3.6 2.4-6.7 -0.6-1-1.3-1.9-1.8-3 -0.8-1.5-3.2-2.9-2.3-4.5 1.2-1.8 3.5-3 5.4-4.3 1.1-0.8 1.8 0 2.4 0.9 3.4 4.9 7.1 9.6 9.5 15.2 2.8 6.6 1.3 10.4-5.5 12.9 -10.2 3.8-21 5.1-31.4 7.8 -6.7 1.8-13.6 3-20.4 4.5 -5.8 1.3-10.5-0.3-14-5.2 -4.5-6.2-9.1-12.3-13.7-18.4 -1.1-1.5-1.6-2.4 0.3-3.9 6.1-4.9 6-5 10.7 1.2 2.5 3.3 4.9 6.7 7.5 9.9 2.5 3.2 5.7 4.4 10.1 2.5 -3.3-3-2.3-5.7-0.3-8.9 8.8-14.8 17.4-29.7 26.1-44.7 0.5 0.5 0.8 0.6 1 0.9 7.8 9.8 7.8 9.8 1.6 20.5C865.4 315.2 859.7 324.9 853.4 335.9z"/><path d="M528.2 917.3c-0.9 8-0.9 17.5-7.5 25.1 -5.5 6.4-12.1 9.5-20.8 8 -6.2-1.1-12.6-1.4-18.8-2.5 -8.3-1.4-6.2 0.7-5.8-7.7 0.2-3.1 1.4-4.1 4.7-3.4 6 1.1 12.2 1.9 18.3 2.2 6.7 0.4 11.4-3.4 13.4-9.7 0.7-2.2 0.6-3.2-2.1-3.5 -6.6-0.7-13.2-2-19.8-2.7 -10-1.1-14.6-5.8-14.6-15.3 0-9.8 6.1-17.2 15.2-17.8 7.3-0.5 14.7 0.6 21.7 2.7C522.6 896 528.3 904.8 528.2 917.3z"/><path d="M811.1 786.9c0.1-5.2 1.2-9 3.7-12.3 2-2.7 4.3-5.1 6-8 2.4-3.9 4.4-4 8-1.1 3.1 2.5 4.2 4.2 1 7.2 -1.4 1.4-2.5 3.1-3.7 4.7 -5.1 6.9-4.6 12.8 1.8 18.4 3.1 2.7 6.4 5.3 9.9 7.6 6.7 4.4 12.4 3.6 17.8-2.2 9.7-10.4 9.7-10.4-1.4-18.9 -8.6-6.6-17.1-13.3-25.7-19.8 -2.3-1.7-2.3-2.7-0.6-5 6.7-8.7 6.6-8.7 15.5-1.9 11.7 9.1 23.4 18.2 35.2 27.1 2.6 1.9 3 3.1 0.8 5.7 -5.9 7.2-11.2 14.9-17.4 21.8 -5.9 6.6-14 9.8-22.6 6.7 -12.7-4.5-23.5-11.7-27.5-25.8C811.3 789.5 811.2 787.7 811.1 786.9z"/><path d="M780.4 245.4c-0.7 6.8-4.7 12.5-11.4 16.1 -5.9 3.3-11.7 2.4-17.3-1.4 -8.2-5.7-16.6-11.1-25-16.5 -2.5-1.6-3.4-2.8-1.4-5.7 4.7-6.8 4.5-6.9 11.6-2.3 6.8 4.5 13.6 8.9 20.4 13.4 3.2 2.1 6.3 2.7 8.7-0.8 2.5-3.7 0.9-6.6-2.4-8.8 -4.9-3.2-9.8-6.3-14.6-9.6 -8.5-5.8-10.2-14.7-4.6-24 4.7-7.9 14.5-11.1 22.5-6.5 9.6 5.6 18.8 12 28.1 18 1.4 0.9 1.8 1.8 0.6 3.2 -0.9 1.2-1.8 2.4-2.5 3.8 -1.4 2.8-2.8 3.3-5.6 1.3 -5.9-4.3-12.2-8.1-18.3-12.1 -1.4-0.9-2.8-1.8-4.3-2.5 -3.3-1.7-6.4-1.9-8.7 1.7 -2.2 3.6-0.8 6.5 2.2 8.6 4.2 3 8.6 5.8 12.8 8.7C776.2 233.5 780.5 237.6 780.4 245.4z"/><path d="M176.8 375c0-1.9 0.9-4.9 2.4-7.7 4.3-8.4 8.8-16.8 12.8-25.4 1.4-3 2.7-2.9 5.2-1.6 6.2 3.2 6.3 3.1 3.1 9.4 -3.3 6.5-6.7 13-9.8 19.6 -1.7 3.5-3.1 7.4 1.6 10 3.7 2.1 6.9 0.7 9.6-4.2 2.6-4.7 4.7-9.5 7.4-14.1 5.7-9.5 13.8-11.7 23.3-6.4 9.9 5.4 12.8 14.2 8 23.8 -4.5 8.9-9.1 17.7-13.5 26.7 -1.3 2.7-2.4 3.7-5.5 2 -7.4-4-7.5-3.8-3.5-11.4 3.6-7.1 7.2-14.2 10.9-21.3 1.7-3.4 1.9-6.6-1.9-8.5 -3.9-2-6.7-0.2-8.5 3.4 -2.8 5.5-5.4 11-8.4 16.4 -4.2 7.6-10.8 10-19.6 7.6C181.8 390.8 176.6 384.4 176.8 375z"/><path d="M328.1 215.9c0.3-9.7 3.3-16.6 10.9-20.9 6.6-3.8 13.2-7.7 19.8-11.6 2.1-1.3 3.5-1.6 4.6 1 0.6 1.5 1.6 2.9 2.6 4.3 1.2 1.7 1 2.6-1 3.7 -5.5 3-11 6.3-16.3 9.7 -5 3.2-6.5 7.5-5.1 12.9 0.7 2.6 1.5 3.5 4.3 1.8 7.5-4.6 15.2-8.9 22.7-13.5 2.6-1.6 4-1.8 5.7 1.3 3.3 6.1 3.5 6-2.7 9.6 -6.8 3.9-13.4 8.1-20.3 11.7 -3.1 1.6-2.7 2.9-0.9 5.1 3.5 4.6 7.4 5.8 12.7 3.1 5.9-3 11.6-6.4 17.3-9.9 2.3-1.4 3.6-1.9 5.4 1.1 4.3 7.4 4.6 7.5-2.9 11.6 -7.3 3.9-13.7 9.5-22 11.4 -6.8 1.5-13.2 0.5-18.4-3.9C335.1 236.6 329.6 226.7 328.1 215.9z"/><path d="M779.7 870.9c-0.1 8.4-3.2 15.1-10.8 19.5 -6.3 3.7-12.6 7.5-18.7 11.5 -2.5 1.6-4 1.8-5.3-1.2 -0.6-1.4-1.5-2.6-2.4-3.8 -1.4-1.8-0.7-2.7 1-3.8 5.3-3.1 10.6-6.2 15.7-9.6 5.3-3.5 6.7-8.1 5-13.8 -0.8-2.5-1.6-2.8-3.7-1.4 -7.6 4.8-15.4 9.3-22.9 14.1 -2.6 1.7-3.9 1.9-5.6-1.2 -3.4-6-3.7-5.9 2.4-9.6 6.8-4.2 13.5-8.4 20.5-12.4 2.6-1.5 2.2-2.6 0.7-4.5 -3.6-4.8-7.7-6-13.1-3.1 -5.8 3.1-11.5 6.6-17.1 10.2 -2.5 1.6-3.7 1.7-5.4-1.1 -4.4-7.3-4.6-7.2 2.7-11.8 4.9-3.1 9.9-6.1 14.9-9 10.6-6.1 22.7-3.9 30.5 5.5C775.5 854 779.6 863.2 779.7 870.9z"/><path d="M627.8 186.1c1.7-9.3 2.9-20.7 12.5-28.7 5.9-4.9 12.5-6.7 20-4.5 7.3 2.1 14.7 4.3 22 6.2 2.6 0.7 3.4 1.6 2.7 4.4 -2 7.2-1.9 7.2-9 5.1 -4.8-1.4-9.5-2.9-14.4-4 -5.4-1.3-9.8 0.9-12.7 5.5 -1.5 2.4-0.9 3.3 1.7 4 8.7 2.3 17.2 5 25.9 7.2 2.9 0.8 3.5 1.9 2.6 4.8 -2.1 6.7-1.9 6.8-8.6 4.9 -7.7-2.2-15.3-4.4-22.9-6.7 -2.8-0.9-3.8 0.1-4.3 2.8 -1 5.6 0.8 9.4 6.4 11.4 6.2 2.2 12.7 3.9 19 5.7 2.8 0.8 4.1 1.6 3 5 -2.5 7.9-2.3 7.9-10.3 5.6 -5.6-1.6-11.2-3.2-16.8-4.8C634.7 207.2 627.9 198.3 627.8 186.1z"/><path d="M436.9 214.1c-9.1 0-16.4-5.2-18.9-13.4 -3.6-11.7-7-23.6-10.6-35.3 -0.7-2.3-0.5-3.5 2.2-4.3 10.5-3.5 10.4-3.6 13.6 7 2.5 8.6 5 17.2 7.7 25.8 2.2 7.2 6.8 9.6 14.2 7.5 3.5-1 7-2.4 10.5-3 3.9-0.7 4.5-2.2 3.3-5.9 -4-12.7-7.6-25.5-11.5-38.2 -0.9-3.1-0.7-4.5 2.9-5.4 8.5-2.1 8.4-2.4 10.8 5.7 4.4 15.1 8.8 30.3 13.4 45.4 0.9 3.1 0.3 3.9-2.6 4.7 -9.8 2.7-19.5 5.6-29.2 8.4C440.6 213.7 438.6 214.4 436.9 214.1z"/><path d="M592.3 191.4c6.4-10.9 12.4-20.8 18.2-30.9 4.5-7.8 3.5-10.2-5.6-11.2 -3.6-0.4-4.1-1.6-3.9-4.9 0.2-3.8 1.4-5 5.1-4.2 5.5 1.1 11.2 1.5 16.5 3.8 5.6 2.5 7.1 5.7 5 11.6 -1.7 4.9-4.6 9.2-7.2 13.6 -5.3 9.1-10.6 18-15.7 27.2 -1.4 2.6-2.9 3.6-5.9 2.9 -3.1-0.7-6.3-1.2-9.4-0.9 -8 0.6-10.4-3.9-12-10.8 -3.8-16-8.2-31.8-12.7-47.7 -1.1-3.8-0.4-4.4 3.4-4 9.6 1.1 9.6 0.9 12.1 10.4C584.1 161 588 175.7 592.3 191.4z"/><path d="M909.2 652.8c0.3-2.4-1.6-2.2-2.9-2.7 -5.8-1.9-11.7-3.7-17.6-5.5 -2.2-0.6-2.7-1.4-2-3.8 2.7-9.2 2.6-9.2 11.5-6.5 14.7 4.6 29.5 9.3 44.3 13.8 3.5 1 4.8 2.5 2.9 5.9 -0.2 0.3-0.1 0.6-0.2 1 -2 6.5-2 6.5-8.4 4.5 -4.4-1.4-8.9-2.7-13.3-4.2 -2.2-0.7-3.6-0.7-4.3 2.1 -1.5 5.6-3.2 11.2-5.2 16.6 -1 2.5 0 3.2 2 3.8 5.7 1.7 11.4 3.6 17.2 5.3 2.3 0.7 2.7 1.7 2.1 3.9 -2.4 9-2.4 9.1-11.4 6.2 -15.1-4.7-30.1-9.5-45.2-14 -3.2-0.9-3.2-2.1-2.3-4.8 2.7-8.2 2.5-8.1 10.7-5.8 5.2 1.5 11.4 6.1 15.3 3.7 3.4-2.1 3.7-9.4 5.4-14.5C908 656.2 908.6 654.4 909.2 652.8z"/><path d="M212.5 762.3c-7.8-0.1-13.3-3-17-8.6 -5-7.5-9.5-15.2-14.4-22.8 -1.1-1.8-1.1-2.6 0.8-3.9 6.6-4.5 6.6-4.6 10.8 2.1 2.9 4.6 5.8 9.3 8.7 14 1.9 3 4.5 4.8 8.1 5.1 2.8 0.2 5.8-0.4 7.2-2.5 1-1.5-1.4-3.4-2.4-5 -4.3-7.1-8.7-14.2-13.2-21.1 -1.5-2.3-1.6-3.7 1.1-4.9 1.4-0.6 2.6-1.5 3.8-2.4 2-1.5 3-0.9 4.2 1.1 4.7 7.8 9.8 15.5 14.4 23.3 1.6 2.7 2.8 2.9 5.3 1.2 5.1-3.4 10.5-6.4 15.6-9.8 2.2-1.4 3.2-1.2 4.7 1 6.1 9.2 6.2 9.1-3.3 14.9 -8.2 5-16.4 10.1-24.6 15.2C219 761.2 215.5 762.5 212.5 762.3z"/><path d="M375.2 858.9c0 17.5-15.5 35.4-29.3 36.5 -4.4 0.4-8.6-0.4-12.4-2.9 -6.6-4.2-13.1-8.5-19.8-12.5 -2.6-1.5-3.3-2.9-1.1-5.3 1-1.1 1.8-2.4 2.4-3.8 1-2.1 2.2-1.8 3.9-0.7 4.8 3.2 9.7 6.4 14.6 9.5 6.7 4.1 12.2 3.4 17.1-2.8 3.1-3.9 5.8-8.1 8.3-12.4 3.1-5.4 2.4-9.4-2.7-13.1 -5.3-3.9-11-7.5-16.6-11 -2.5-1.5-3.3-2.5-1.4-5.3 4.7-7.1 4.6-7.2 11.9-2.5 5 3.2 10.2 6.3 15.1 9.7C371.8 846.9 375 853.4 375.2 858.9z"/><path d="M324.2 214c0.1 1.4-1 1.8-1.7 2.3 -3.6 2.9-7.2 5.9-11 8.5 -2.3 1.6-2.1 2.6-0.5 4.6 8.5 10.7 16.8 21.5 25.4 32.1 2.2 2.7 2.6 4.1-0.6 6.5 -7.9 5.8-7.8 6-13.7-1.6 -7.2-9.1-14.5-18.3-21.5-27.5 -2-2.6-3.4-3.6-6.1-0.9 -2.1 2.1-4.7 3.7-7.1 5.5 -5 3.9-8.7 2.7-11.1-3.3 -0.8-1.9 0.7-2.3 1.6-3.1 12.5-9.7 25-19.3 37.4-29.1 1.9-1.5 3.2-1.9 4.7 0.4C321.3 210.5 322.8 212.3 324.2 214z"/><path d="M265.1 339.7c-2.4 3.3-4.8 7-7.6 10.2 -0.8 0.9-2.3-0.9-3.3-1.6 -11.2-7.7-22.5-15.4-33.6-23.4 -2.7-1.9-4-1.8-5.7 1 -2 3.4-4.7 6.4-6.8 9.9 -1.7 2.8-3.1 2.8-5.3 0.8 -1.1-1-2.4-1.8-3.7-2.6 -1.6-0.9-2-1.8-0.8-3.4 9.4-13.3 18.8-26.6 28.2-40 1.1-1.6 2.1-1.8 3.6-0.6 1.4 1.1 3 2.1 4.5 3.1 1.8 1.1 2 2.2 0.7 4 -2.7 3.6-5.1 7.4-7.9 11 -1.7 2.2-1.5 3.4 0.9 5 11.4 7.8 22.7 15.7 34 23.6C263.4 337.5 264.8 337.8 265.1 339.7z"/><path d="M898.4 597.7c14.4 2.5 27.7 4.5 40.9 7.1 4.4 0.9 6.4 0 6.6-4.6 0.1-2.5 0.7-4.9 1.2-7.4 0.4-2.2-0.2-5.7 2-6.1 2.7-0.6 5.8 0.7 8.8 1.4 1.5 0.3 0.7 1.6 0.6 2.4 -2.7 16-5.5 32.1-8.2 48.1 -0.3 2-1 2.7-2.9 2 -0.3-0.1-0.6-0.2-1-0.2 -7.2-1.2-7.1-1.2-6.2-8.2 0.6-4.2 3.7-9.4 1.1-12.3 -2.2-2.4-7.7-2-11.8-2.7 -10.6-1.8-21.3-3.6-32-5.2 -2.8-0.4-3.7-1.4-2.8-4.2 0.7-2.4 1.1-4.9 1.3-7.4C896.1 598 897.3 597.3 898.4 597.7z"/><path d="M832.9 262.7c-4.1-3.7-8.1-7.3-12.2-10.7 -2.1-1.8-2.4-3.2 0-4.9 1.3-1 2.5-2.2 3.6-3.5 1.3-1.4 2.2-1.4 3.6 0 11.2 11.7 22.4 23.3 33.8 34.8 1.9 1.9 1.1 2.8-0.4 4.3 -5.4 5.4-5.4 5.5-10.6 0.2 -2.9-2.9-5.9-8-8.9-8.1 -3-0.1-6.1 4.9-9.1 7.7 -7.9 7.5-15.7 14.9-23.4 22.5 -1.9 1.9-3 2.1-5.1 0 -7.5-7.6-7.6-7.6-0.1-14.8C813.4 281.5 822.6 272.6 832.9 262.7z"/><path d="M288.3 785.6c0 6.4-1.9 11.3-6.1 15 -9.6 8.3-19.2 16.4-28.7 24.7 -1.6 1.4-2.4 1.4-3.9-0.2 -8.1-8.3-8.2-8.3 0.6-15.8 6.7-5.7 13.4-11.5 20.1-17.2 5.7-4.9 6.2-10.3 1.3-16 -3.1-3.7-6.3-7.3-9.5-10.9 -1.6-1.7-2.3-3 0.1-4.6 1.4-0.9 2.6-2.1 3.8-3.2 1.2-1.1 2.2-1.7 3.6 0 5 6 10.3 11.8 15.2 17.9C287.3 778.4 288.5 782.2 288.3 785.6z"/><path d="M846.9 732.2c0.9 0.6 1.7 1.1 2.5 1.7 14.4 9.5 28.8 19.1 43.3 28.5 2.5 1.6 3.2 2.8 1.3 5.6 -5.9 8.5-5.7 8.6-14.3 3 -12.3-8.2-24.5-16.5-37-24.4 -4.1-2.5-4.1-4.5-1.3-7.7 1.3-1.5 2.3-3.3 3.4-4.9C845.2 733.1 845.6 732.1 846.9 732.2z"/><path d="M265.9 751.9c0.3 1.4-0.9 1.7-1.7 2.2 -14.7 10.5-29.5 21-44.2 31.5 -1.6 1.2-2.4 1.4-3.9-0.4 -7.3-9.1-7.4-9 2.1-15.8 12.2-8.7 24.4-17.3 36.5-26.1 2.5-1.8 4-2.1 5.7 0.9C262 747 264.1 749.4 265.9 751.9z"/><path d="M151.6 501.2c13 1.1 28.9 2.6 44.8 3.9 2.2 0.2 3.3 0.7 3 3.3 -1.4 13.3 1.7 11.2-11.9 10.2 -14.3-1.1-28.5-2.6-42.8-3.5 -4.8-0.3-6.2-1.7-5.6-6.5C140.2 500.6 139.9 500.6 151.6 501.2z"/><path d="M780.4 282.4c-1.4-1.2-2.7-2.2-3.9-3.3 -6.7-5.8-6.8-5.8-0.9-12.6 10.2-11.9 20.5-23.6 30.6-35.6 2-2.4 3.2-2.2 5.4-0.3 8 6.7 8.1 6.6 1.3 14.4 -9.9 11.5-19.8 22.9-29.7 34.4C782.4 280.4 781.5 281.3 780.4 282.4z"/><path d="M554.1 166.6c0 8.6-0.1 17.3 0.1 25.9 0 2.6-0.5 3.7-3.5 3.7 -10.9 0.1-10.9 0.3-10.8-10.7 0.1-15 0.2-29.9 0.1-44.9 0-3.4 1-4.1 4.2-4 10.1 0.1 10.1 0 10 10C554.1 153.3 554.2 159.9 554.1 166.6 554.1 166.6 554.1 166.6 554.1 166.6z"/><path d="M458.1 895.7c0.7-3.3-1.6-3.2-2.9-3.4 -3.1-0.3-3.5-1.7-2.5-4.3 0.6-1.4 0.9-2.9 1.2-4.3 0.3-1.8 0.9-2.5 3-1.9 4.6 1.4 9.3 2.4 14 3.5 2 0.5 2.6 1.3 2 3.5 -4.6 17.3-9.1 34.6-13.5 52 -0.6 2.6-1.8 2.6-3.8 2.2 -9.2-1.9-9.1-1.9-6.8-10.8 3-11.5 6-23.1 9-34.6C457.8 896.7 458 895.9 458.1 895.7z"/><path class="st2" d="M850 380.8c1.2-1.8 2.9-2.3 4.3-3 1.9-0.9 2.5-2 1.1-3.8 -1.9-2.3-0.9-3.5 1.4-4.8 7.6-4.4 7.4-4.4 12 3.2 1.7 2.9 1.5 4.2-1.7 5.9C858.5 382.7 856.4 383.2 850 380.8z"/><path class="st3" d="M489 164.4c-1-1.5-0.9-3.1-0.7-4.9 1.4 0.4 1.4 1.6 1.7 2.7C489.6 162.9 489.3 163.6 489 164.4z"/><path class="st4" d="M516.3 173c0.7 1.2 1.6 2.6 0.2 3.6 -0.5 0.4-1.2-0.7-1.2-1.6C515.6 174.3 515.9 173.6 516.3 173z"/><path class="st1" d="M549.2 545c-1.7 0-3.3 0.1-5 0.1 -106.8 0-213.6 0-320.5 0.1 -4.9 0-6-1.3-5.8-6 4.2-112 52.3-200.3 143.5-265 40.4-28.7 85.7-45.9 134.6-53.9 16-2.6 32.1-3.8 48.2-4.3 4.1-0.1 4.9 1.1 4.9 5 -0.1 61.2-0.1 122.3-0.1 183.5 0 46.8 0.1 93.7 0.1 140.5L549.2 545z"/><path class="st1" d="M592.1 784.3c1.3-2.4 2.7-4.8 4-7.2 2.1-2-0.8-1.2-1-1.9 -1.4-0.6-2.6-1.2-0.6-2.6 1-0.7 2.7-0.4 2.8-2.3 1.9-0.5 3.9-0.1 5.8-0.1 0.3 0.3 0.6 0.6 0.9 0.9 0.4 1.1 0.9 1.3 1.5 0.1 0.8-0.6 0.9-2.5 2.4-1.9 0.8 0.3 1.2 1.3 1 2.5 -0.4 2.3 0.9 3.2 2.4 1.8 2.5-2.4 5.1-2 7.9-1.5 0.6-0.6 0.9-1.4 1.5-2 0.9-1.4 1.9-2.6 3.6-3 1 2.1 2.8 4.4-0.8 5.9 -0.6 0.3-0.8 1.2-0.2 1.7 0.5 0.4 1.2 0.8 1.7 0.7 9.2-2.1 18.8-2.3 27.2-7.2 0.4-0.3 0.9-0.5 1.3-0.8 2.5-1.9 6-3.4 5.4-7.1 -0.6-3.7-4.4-4.2-7.4-5 -5.9-1.6-12.1-2-18.5-2.4 0.1-3 2.2-4.9 3.8-6.8 8.4-9.8 17.8-18.3 29.7-23.9 14.7-6.9 26.8-17.9 39.8-27.7 -11.3 0.2-22 4.9-33.3 5 0-0.2-0.2-0.6-0.1-0.7 9.2-10.8 19.8-20.4 32.9-25.2 9.6-3.6 19.8 0.2 27.4 7.7 3.8 3.7 7.7 6.9 12.8 8.3 7.3 1.9 12.6 6.5 16.8 12.5 6.2 8.7 13.5 16 23.5 20.2 0.7 0.3 1.4 1.1 2.6 0.2 -3.2-3.8-6.4-7.5-9.4-11.4 -2.9-3.7-5.5-7.5-6.9-12.1 -0.9-3-1-5.9 0.1-8.8 2.6-6.7 4.3-7.4 10.5-4 8.6 4.8 17.6 8.5 27.5 9.9 2.7 0.7 2.8 0.7 3.1-0.9 -7.1-3.4-14-6.9-21-10.5 -3-1.5-2.5-4.9-4.3-6 -1.6-0.9-4.5 1.6-6.8-0.8 -2.1-2.2-4.7-1.8-7.4-0.8 -1.7 0.6-3.4 2.1-5.2-0.5 -1.1-1.7-2-0.7-2.6 1 -0.9 2.6-2.3 3.5-4.2 0.4 -1.1-1.9-2.9-2.2-3.4 0.3 -0.4 2.3-2 2.3-3.2 1.9 -5.4-2-11.8-0.7-16.6-4.7 -4.1-3.4-9-4.8-14.1-6 -2.1-0.5-5.2 0.2-5.4-3.7 -0.1-1.3-1.8-1.2-2.8-0.2 -2.9 2.7-5.2 1.4-7.1-1.3 -1.2-1.6-3-1.2-2.7 0 0.9 3.5-1.8 3.3-3.4 4 -24.5 10.2-49.2 20.3-75.2 26.5 -4 1-6.6 5.7-11.5 4.4 -2.3 8.2-10.9 8.4-16.2 12.7 -0.9 0.7-1.9 1.4-3.2 1 -0.1-0.3-0.3-0.5-0.3-0.6 0.1 0.1 0.2 0.3 0.5 0.5 -5.1 4.3-10.9 6.5-17.7 6.8 8.6-13.9 22.8-23.2 30.2-38.4 -5.3-0.8-9.4 1.1-12.9 3.8 -4.1 3.1-8.3 4.6-13.5 3.6 -3.4-0.7-6 0.9-8.5 3.2 -2.6 2.5-5 5.6-9.6 6.5 0.8-4.4 3.5-6.8 6.1-9.2 4.8-4.4 9.6-8.7 14.4-13.1 1.3-1.2 2.9-2.8 2.2-4.7 -0.8-2-3.1-1.5-4.9-1.7 -0.2 0-0.3 0-0.5 0 -3-0.4-7.1 1.1-8.8-2 -1.9-3.4 1.7-6.1 3.5-8.6 4.5-6.1 8.9-12.5 14.4-17.8 6.9-6.8 11.7-7.1 18.4-0.4 6 6 13.6 8.1 21.3 10 3.2 0.8 6.4 1.6 9.7 2.2 10 1.7 17 7 20.2 16.9 1.5 1.3 1.2-0.4 1.6-0.9 0.3-5.7 0.1-11.3-0.8-16.9 -0.7-4.7-2.1-9.1-5.3-12.7 -4.4-4.8-4.7-10.5-3.7-16.4 0.6-3.6 2.5-4.9 6-2.9 1.5 0.9 3 1.9 5.1 3.1 0-5.9-0.3-11.1 0.1-16.3 0.7-9.1 4.7-11 12.5-6.3 6.7 4 11.7 9.8 16.6 15.7 6.5 7.9 12.3 16.5 18.6 26 0.2-9.2 0.7-17.2 2.9-25 2.8-10 4.2-10.5 12.2-3.8 6.6 5.6 13 11.4 19.5 17.2 0.8 0.7 2.4 1.2 1.7 2.7 -0.6 1.3-2.1 0.7-3.2 0.8 -3.3 0.2-6.7 0-11.2 1.7 11.8 3.3 20.1 12.2 31.8 12.3 12 0.1 22.9 3.2 32.8 10.1 3.6 2.5 7.8 3.6 12.1 4.5 13.2 2.8 23.3 10.2 31.1 20.9 0.8 1 1.2 2.5 3.3 2.3 -0.1-5.4-3.1-9.3-6.5-12.9 -6.1-6.5-13.8-10.9-21.2-15.6 -2.7-1.7-5.3-3.4-7.9-5.2 -0.6-0.4-2.1-0.8-0.9-1.9 0.7-0.6 2-0.9 1.2-2.1 -0.7-1.1-2.1-1.4-3.1-0.6 -2 1.8-2.6-0.2-3.4-1.1 -3.7-4.6-4.6-9.9-2.7-15.5 2.1-6 6-10.7 10.9-14.6 2.9-2.4 6-2.3 8 1.2 2.3 4.1 6 6 10.3 7.3 10.2 3.2 20 7.2 29.1 12.9 1.3 0.8 3.5 4 5.4 0.3 0.3-0.2 0.6-0.2 1 0 -3.5 15-9.2 29.1-15.8 42.9 -42.2 89-110.5 148.4-204.2 178.5 -30 9.6-60.9 13.9-92.4 14.6 -4 0.1-4.9-1-4.9-4.9 0.1-41.8 0.1-83.6 0.1-125.4 0-7.1 6.4-12.6 13.5-11.8 1.4 0.2 2.6 0.6 3.5 1.7 0.7 0.9 1.4 2 0.5 3.2 -1.1 1.4-2 0.2-3-0.4 -1.1-0.7-2.1-1.5-3.3-2.3 -0.6 6 0.8 7.7 6.2 7 6.3-0.8 12-3.7 18.1-5.6 4.5-1.4 8.9-2.9 13.6-2.8 4.9 0.2 7.2 2.6 7.3 7.6 0 4.9-2 9.1-4.4 13.1 -6 10.4-12.1 20.7-20.4 29.5 -4.5 4.8-7.7 10.4-8.6 17.1 -0.6 1.1 0 1.6 0.9 1.6 2.3 0 0.2-1.9 1-2.5 1.4-4.1 6-1.7 8.3-4.1l-0.1 0.1c-6.2-4.3 0.3-5.6 2-8 0.6-0.6 1.2-0.6 1.8 0.1 1.6 2.4 2.9 1.7 3.5-0.6 0.4-1.7 0.9-2.7 2.8-2.4 0.2 0.2 0.3 0.3 0.3 0.3C592.6 784.6 592.4 784.5 592.1 784.3z"/><path class="st1" d="M866.2 638.1c-0.3 0-0.6 0-1 0 -13.5-10.6-27.9-19.8-42.6-28.7 -3.6-2.2-6.8-2.4-10.8-1 -16.5 6.1-33.2 11.8-49.7 18 -5 1.9-8.8 1.2-12.9-1.9 -8.3-6.5-16.7-12.7-25-19.1 -3.3-2.6-6.5-2.8-10.1-0.8 -3.7 2-7.5 3.6-11.2 5.5 -3.7 1.9-6.9 1.6-10.1-1.2 -4.4-4.1-9-8-13.5-11.9 -6.4-5.6-6.7-5.7-13.6-1 -6.5 4.4-12.9 8.9-19.2 13.5 -2.4 1.7-4.8 2.3-7.4 0.7 -2.8-1.8-5-0.8-7.1 1.3 -6.8 6.7-13.6 13.3-20.3 20 -4.3 4.3-5.7 4.5-9.8 0.3 -3.1-3.3-6.3-3.4-9.7-1 -4.3 3.1-8.5 6.4-12.7 9.7 -2 1.5-4.2 3.5-6.6 3.3 -8.6-0.7-14 5.1-20.2 9.3 -0.9 0.6-1.9 1.2-2.8 1.9 -0.3-0.3-0.7-0.6-0.7-0.8 0-36.3 0-72.7 0.1-109 0 0-0.1 0.1-0.1 0.1 108.3 0 216.7 0.1 325-0.1 5.3 0 6.2 1.5 6 6.3 -0.9 28.3-4.8 56-12.5 83.2C867.3 635.7 867.4 637.2 866.2 638.1z"/><path class="st1" d="M747.7 403.5c1.6 33.2-26.1 62.7-60.5 64.4 -34.3 1.7-64.5-25.8-65.9-60 -1.5-34.5 25.6-64 60.3-65.6C716.7 340.5 745.9 367.6 747.7 403.5z"/><path class="st1" d="M373.3 753.2c10.4-0.1 17.2-12.3 11.8-21.4 -3.6-6.2-9.3-10.4-14.9-14.6 -10.3-7.8-21.9-14-31.1-23.4 -2.3-2.3-2.9-3.4 0-5.9 9.5-8.3 16.4-18.7 23.9-28.8 4.2-5.6 8.7-11 12.8-16.6 2.1-2.9 3.4-2.4 5.5 0.1 12.2 14.4 21.9 30.5 30.8 47.1 3.5 6.4 6.7 13 10 19.5 0.9 1.7 1.4 3.1 0.2 5.1 -9 14.5-19 28.2-32.4 39 -4 3.2-8.4 6-13.5 7.2 -8.8 2.2-16.8-3.2-18.6-12.6 -1.8-9.6 3.7-18.2 12.5-19.5 4.2-0.6 9.2 2 11.1 6.1 2.1 4.3 1.4 8.5-1.9 12 -3.4 3.6-7.8 3.2-10.6-0.7 -1.3-1.8-1.6-3.7-0.7-5.6 1.1-2.3 3.1-2.2 5.2-1.9 0.9 0.1 1.9 1.3 2.6 0 0.5-1.1 0.2-2.3-0.6-3.3 -1.7-2.2-3.9-2.3-6.3-1.4 -4.5 1.6-7.4 6.6-6.6 11.1C363.5 749.7 367.9 753.3 373.3 753.2z"/><path class="st1" d="M501.8 644.9c-2 0.5-3.6-0.3-5.2-0.5 -7.1-1.1-13.5 0.5-19.1 5.1 -7 5.8-12.3 13-18 20 -5.2 6.5-10.4 13-15.5 19.6 -1.9 2.4-2.8 3.5-5 0 -13.6-21.6-28.6-42.2-47.2-59.9 -1.9-1.8-1.8-3-0.3-5 3.9-5.1 8.5-9.4 14-12.6 5.9-3.4 12.1-6.3 18.6-8.5 6.2-2.1 12.4-1.9 18.4 1.3 20.9 11.2 39.8 25.4 58.9 39.3C501.5 643.9 501.6 644.3 501.8 644.9z"/><path class="st1" d="M492.8 810.7c-2.8-0.7-2.9-3.2-3.7-5.1 -5.4-12.5-11.8-24.3-24.4-31.2 -0.1-0.1-0.3-0.2-0.4-0.2 -9-2-11.8-9.1-14.9-16.7 -16.1-39.7-35.4-77.8-61.3-112.2 -12-16-25.5-30.7-42.2-43 3.4-0.6 5.5 1 7.7 2.1 18.1 9 32.5 22.5 45.5 37.6 33.4 38.6 57.8 82.8 79 128.9 5.5 11.9 10.6 24 14.5 36.6C492.8 808.4 493.4 809.3 492.8 810.7z"/><path class="st1" d="M372.6 723.8c-14.2 1.2-19.2 8-19.8 26.4 -17.5-17.9-37.2-32.7-55.5-49.2 -3.1-2.8-3.7-6-2.4-10 3.7-11 15.6-15.5 25.5-9.6 2 1.2 4 2.5 5.6 4.2 12.4 13.5 27.7 23.4 42 34.5C369.3 721.2 370.6 722.2 372.6 723.8z"/><path class="st5" d="M479.8 670.2c-0.6-0.1-0.8 0-0.9-0.1 -8.3-6.7-8.2-8.6 0.6-15 4.7-3.4 9.7-5.8 15.6-6.1 9.4-0.6 16 4 17.4 12 1.3 7.4-4.1 15.5-12.1 17.8 -4.3 1.3-9 2.1-12.7-1.6 -3.3-3.3-2.4-7.5-1.1-11.3 1.7-4.8 5.5-7.4 10.6-8 2.8-0.3 5.6 0.1 6.2 3.5 0.6 3.4-1.5 6-4.2 7.3 -2.9 1.4-4.7-0.4-4.9-3.5 -0.1-1.2-0.9-1.3-1.7-0.9 -1.7 0.8-2.5 2.2-2.2 4.1 0.4 4 6.2 6.6 10.3 4.6 5-2.4 8.1-9.2 6.4-13.8 -1.8-4.8-8.8-7.6-14.5-5.5C484.9 656.4 480.4 661.7 479.8 670.2z"/><path class="st5" d="M755.3 414.8c0-6.1 0-11.8 0-17.7 27.7 8.6 56.1 7.1 84.3 8.5C811.4 407.1 782.9 406.1 755.3 414.8z"/><path class="st5" d="M784 505.6c-12.2-11-24.2-22.4-37.4-32.3 -6-4.5-12.2-8.6-19.7-11.6 5-4 9.4-8.2 13.4-12.9 10.7 21.8 28.3 37.7 43.9 55.1C784.6 504.5 784.5 505.1 784 505.6z"/><path class="st6" d="M686 276.1c1.4 19.7 1.5 39.5 8.6 59 -6.2-0.3-12.2-1.1-18.5 0.1 7.4-21.5 7.2-43.3 8.3-65 0.5-0.3 0.9-0.2 1.2 0.2C685.9 272.3 685.2 274.2 686 276.1z"/><path class="st5" d="M591 495.9c7.5-8.7 15-17.3 22.4-26.1 5.6-6.8 10.6-14.1 14.1-22.5 3.9 4.9 8.1 9.1 13 13.4 -18.9 8.8-33.2 23.2-48.5 36.4C591.1 497.1 590.5 496.9 591 495.9z"/><path class="st5" d="M594.2 313.7c8.2 6.8 16.3 13.7 24.6 20.4 7 5.6 14.4 10.7 23.2 14.2 -5.1 4-9.3 8.3-13.5 13.1 -8.3-18.1-22.1-31.6-34.5-46.1C593.6 314.7 593.7 314.2 594.2 313.7z"/><path class="st6" d="M770.6 321.2c-6.2 7.4-12.8 14.4-18.4 22.3 -4.1 5.8-8 11.8-10.5 19.4 -4.1-4.9-8.2-9.4-13.5-13.5 16.6-5.7 28.3-17.5 40.7-28.4C769.5 320.6 770.1 320.7 770.6 321.2z"/><path class="st7" d="M555 404.6c19.9-1.3 39.9-1.2 59.2-9.8 -0.8 6.3-1.2 12.2 0 19C594.9 404.2 574.8 405.6 555 404.6z"/><path class="st8" d="M683.3 523c-1-12.4-1.6-24.9-5.1-37 -1.1-3.6-2.4-7.1-3.8-11 6.2 0.5 12.1 0.9 18.8 0 -6.1 12.4-7.8 25.1-8.3 38.1 -0.7 2.6-0.1 5.2-0.4 7.8C684.5 521.8 684.9 523 683.3 523z"/><path class="st9" d="M683.3 523c1.9-3.1-0.4-6.8 1.6-9.9 0 7.8 0 15.5 0 23.3 -0.5 0-1 0-1.5 0C682.8 531.9 683.1 527.4 683.3 523z"/><path class="st10" d="M686 276.1c-1.4-1.8-0.6-4-1-5.9 -0.9-1.9 0.2-4.1-0.7-6 0-4.4 0-8.9 0-13.3C686.1 259.2 686.1 267.6 686 276.1z"/><path class="st11" d="M621.1 771.1c-0.7 0.3-1.3 0.6-2 1 0.5-2.4-1.5-4.1-1.8-6.4 -0.4-2.6 1.1-3.6 2.9-4.5 1.3-0.6 2.3 0.2 2.8 1.3 0.6 1.4-0.5 1.4-1.5 1.7 -1.3 0.4-2.5 1.2-1.1 2.8C621.6 768.2 621.7 769.6 621.1 771.1z"/><path class="st12" d="M585.2 503.5c-3.5 3.6-6.9 7.2-10.4 10.9 -0.4-0.4-0.8-0.8-1.2-1.2 3.8-3.7 7.6-7.5 11.4-11.2C585.6 502.4 585.6 502.9 585.2 503.5z"/><path class="st13" d="M770.6 321.2c-0.6-0.1-1.1-0.2-1.7-0.2 3.5-3.4 7-6.9 10.5-10.3 0.3 0.3 0.6 0.6 1 0.9C777.1 314.8 773.8 318 770.6 321.2z"/><path class="st14" d="M784 505.6c0.1-0.6 0.1-1.1 0.2-1.7 3.3 3.5 6.7 7 10 10.5 -0.4 0.4-0.9 0.8-1.3 1.3C789.9 512.3 787 509 784 505.6z"/><path class="st15" d="M603.1 770.2c-1.9 2.6-3.8 1.9-5.8 0.1 -0.3-0.9-0.1-1.7 0.7-2.3 1.4 0 2.4-1.7 4-1.1C602.3 768 602.7 769.1 603.1 770.2z"/><path class="st16" d="M574 799.1c0.9 1.2 3.2 1.7 1.7 3.9 -0.7 1-1.6 0.3-2.5-0.1 -1.6-0.7-2.7-1.1-1.1-2.9C573.4 801.2 573.2 798.9 574 799.1z"/><path class="st17" d="M585.2 503.5c-0.1-0.5-0.1-1-0.2-1.5 2-2 3.9-4.1 5.9-6.1 0.3 0.4 0.7 0.8 1 1.2C589.7 499.2 587.5 501.3 585.2 503.5z"/><path class="st18" d="M580.2 300.1c2.3 1.7 4.3 3.7 6 6 -0.4 0.5-0.8 0.6-1.3 0.1 -2.4-1.6-4.2-3.8-6-6C579.3 299.6 579.7 299.6 580.2 300.1z"/><path class="st19" d="M595.1 775.2c0.3 0 0.6-0.1 0.9-0.1 1.1 0 2.2-1.8 3.3-0.2 0.3 0.4 0.5 1.4 0.3 1.7 -0.9 1.3-2.3 0.6-3.5 0.5C595.8 776.5 595.4 775.9 595.1 775.2z"/><path class="st20" d="M585 306.1c0.4 0 0.8-0.1 1.3-0.1 1.6 1 3 2.2 4 3.8 0.4 0.5 0.4 1-0.2 1.4C588.4 309.5 586.7 307.8 585 306.1z"/><path class="st21" d="M605.4 771.3c0.7 1.2 1.2 2.4-0.1 3.4 -0.2 0.2-1 0.2-1.3 0 -1.3-1.1-0.6-2.3-0.2-3.5C604.4 771.2 604.9 771.2 605.4 771.3z"/><path class="st22" d="M621.1 771.1c-1.5-1.1 0.2-2.9-0.8-4.1 1.3 0 2.6 0.1 3.9 0.1C621.9 767.5 623.7 771 621.1 771.1z"/><path class="st23" d="M580.2 300.1c-0.4 0-0.8 0-1.2 0.1 -1.5-0.9-2.7-2-3.7-4.1C577.8 296.8 579 298.4 580.2 300.1z"/><path class="st24" d="M607.4 383.5c-3.3 1-4.7-0.3-7-0.8C603 381.5 604.6 383.1 607.4 383.5z"/><path class="st25" d="M601.9 766.9c-1.2 0.9-2.1 2.7-4 1.1C598.9 766.3 599.7 764.1 601.9 766.9z"/><path class="st26" d="M590 311.3c0.1-0.5 0.1-1 0.2-1.4 1.3 1.3 2.7 2.6 4 3.9 -0.1 0.5-0.1 1.1-0.2 1.6C592.7 314 591.4 312.6 590 311.3z"/><path class="st27" d="M814 695.3c0.8 0.3 1.7 0.6 3.9 1.5 -3.3 0.5-5.2 0.5-7-0.6C812 695.8 813.2 696.3 814 695.3z"/><path class="st28" d="M776.8 352.7c0.7-1.6 2.1-2 3.7-2.7C780 352.5 778.1 352.1 776.8 352.7z"/><path class="st29" d="M660.6 313.1c0.6 2.1 1.1 3.6 1.7 5.9C660.5 317.1 659.7 315.7 660.6 313.1z"/><path class="st30" d="M605 450.5c1.5-2.5 3-2.7 5.3-3.8C608.7 449.2 607.2 449.4 605 450.5z"/><path class="st31" d="M597.9 454.2c1.8-1.9 2.9-2.7 5-2.8C601.7 453 600.4 453.5 597.9 454.2z"/><path class="st30" d="M739.5 500.8c1.4 0.7 2.2 1.8 2.3 3.8C740 503.7 739.9 502.2 739.5 500.8z"/><path class="st32" d="M755 365.3c1.4-2.2 2.9-2.5 4.6-3.4C759 364.3 757.3 364.4 755 365.3z"/><path class="st33" d="M774.2 354c-1.6 2-2.9 2.6-5.3 3.1C770.6 355.2 771.9 354.5 774.2 354z"/><path class="st34" d="M767.3 358c-1.6 2-2.9 2.6-5.3 3.1C763.6 359.2 764.9 358.5 767.3 358z"/><path class="st17" d="M684.3 264.2c1.4 1.9 0.6 4 0.7 6 -0.2 0-0.5-0.1-0.7-0.1C684.3 268.1 684.3 266.1 684.3 264.2z"/><path class="st35" d="M776.9 430.7c2.6-0.8 3.7-0.4 5.2 1.2C780.2 431.4 779 431.1 776.9 430.7z"/><path class="st36" d="M706.7 323.2c0.6 2.2 0.4 3.4-1 4.4C705.2 326 706.1 325 706.7 323.2z"/><path class="st37" d="M551.8 439.7c0.9-0.9 1.9-1.1 3.1-0.6C554 440.6 553 440.2 551.8 439.7z"/><path class="st38" d="M577 433.8c-1.1 0.2-2.2 0.8-3.5 0.1 1-1.3 2.4-0.7 3.6-0.9 0.3 0.2 0.4 0.4 0.2 0.5C577.3 433.7 577.1 433.8 577 433.8z"/><path class="st39" d="M577 433.8c0-0.3 0-0.5 0.1-0.8 1-1.7 2.6-0.9 4-0.9l-0.1-0.1C580.2 433.8 578.3 433 577 433.8z"/><path class="st40" d="M709.5 498.1c-1.9-1.2-1-2.4-2-3.5C710 495.3 708.6 496.7 709.5 498.1z"/><path class="st41" d="M651.3 279.1c0.9 1.5 0.9 2.4 0.6 3.4C650.7 281.7 650.9 280.7 651.3 279.1z"/><path class="st42" d="M663.9 669c0.2 1.1 0.8 2.5-0.3 3 -0.8 0.3-1.2-1.1-1.4-2C662.8 669.7 663.4 669.3 663.9 669z"/><path class="st43" d="M711 505.8c1.6 0.7 0.8 1.8 1.1 2.9C710.4 508 711.6 506.7 711 505.8z"/><path class="st42" d="M712.1 303.2c0.1-0.7 0-2 0.3-2.2 1.7-0.9 0.7 0.6 0.7 1 0 0.4-0.2 0.8-0.4 1.3C712.6 303.3 712.3 303.2 712.1 303.2z"/><path class="st44" d="M657.9 305.7c1.3 1 1.5 1.9 0.5 3.3C658.2 307.6 658 306.7 657.9 305.7z"/><path class="st45" d="M581.1 432.1c0.8-1.7 2.2-0.9 3.8-1.1C583.6 432.5 582.3 432 581.1 432.1 581.1 432 581.1 432.1 581.1 432.1z"/><path class="st46" d="M718.1 531.3c1.2 1.2 1 2.2 0.7 3.3C717.8 533.8 718 532.7 718.1 531.3z"/><path class="st47" d="M606.4 425.5c-0.8 0.9-1.7 0.7-2.7 0.7C604.3 424.4 605.3 425.1 606.4 425.5z"/><path class="st48" d="M586 787.2c-0.6 0-1.2 0-1.8-0.1 0.1-1.1 0.3-2.6 1.6-2.5C586.5 784.7 586.1 786.2 586 787.2z"/><path class="st49" d="M768.7 383.2c-0.9 1.3-1.9 0.9-3.3 0.6C766.5 382.8 767.5 382.9 768.7 383.2z"/><path class="st50" d="M596 380.5c-1.6 0.7-2.8 0.8-3.2 0 -0.5-1.2 0.7-0.5 1.1-0.5C594.4 380 594.8 380.2 596 380.5z"/><path class="st51" d="M780.5 379.8c0.8-1 1.9-0.7 3-0.7C782.8 380.8 781.6 380 780.5 379.8z"/><path class="st52" d="M562.8 371.8c0.9 0.2 1.7 0.3 2.7 0.5C564.4 373.8 563.6 372.7 562.8 371.8z"/><path class="st53" d="M618.2 911.3c-4.7 0-7.2-1.7-7.9-5.3 -0.8-3.8 1.1-6.7 4.8-7.7 5.1-1.4 10.4-2.4 15.6-3.1 3.8-0.6 6.5 1.5 7.3 5.2 0.8 3.5-0.8 6.5-4.3 7.5C628.3 909.4 622.7 910.3 618.2 911.3z"/><path class="st53" d="M643 925.5c-0.3 3.2-2.3 5.5-5.7 6.3 -4.7 1.1-9.4 2-14.2 2.8 -4 0.7-7-1-7.9-5 -1-4 1-6.9 5-7.9 5-1.3 10.1-2.3 15.1-3.1C639.4 917.9 643 921.2 643 925.5z"/><path class="st1" d="M185 695.9c-4.2 0.2-6.8-1.1-8.5-3.8 -2.1-3.3-3.4-6.8-4.3-10.6 -1.1-4.4 0.4-7.9 4.3-10.2 6.6-3.9 13.8-6.7 21.4-7.9 4.4-0.7 7.8 1 9.9 5.1 0.8 1.6 1.6 3.3 2.2 5 2.9 8.1 1.5 11.9-6.1 15.9C197.6 692.7 191.1 695.1 185 695.9z"/><path class="st1" d="M921.8 504.4c-11.2 0.2-18.2-9.7-14.2-20.4 1.2-3.1 3.7-4.8 6.5-5.7 7-2.3 14.2-3.5 21.6-3.2 4.6 0.2 7.9 2.4 8.9 7.3 0.1 0.5 0.3 0.9 0.4 1.4 2.9 13 0.3 16.9-12.9 19.1C928.7 503.6 925.2 504 921.8 504.4z"/><path class="st53" d="M510.5 915.3c-4.9-0.7-9.8-1.5-14.7-2.1 -3.5-0.5-6.2-1.5-5.8-5.8 0.3-4.1 2.5-6.8 6.5-6.8 4.3 0 8.7 0.4 12.7 2.2 4.2 1.9 6.2 6.8 5 11.4C513.5 916.7 511.8 914.9 510.5 915.3z"/><path class="st0" d="M422.4 324.4c34.3 0 68.6 0.1 103-0.1 4.2 0 5.3 1.1 5.3 5.2 -0.1 49.5-0.1 99 0 148.4 0 3.8-0.8 5.3-4.9 5 -5.6-0.4-11.3-0.4-17 0 -4.4 0.3-5.1-1.5-5.1-5.4 0.2-16 0-32 0.2-48 0-3.9-0.9-5.6-4.9-4.9 -2.9 0.5-4.2-1.1-3.4-3.7 0.8-2.6-2.7-6.8 2.4-7.7 6.1-1.1 6.4-1.3 4.7-7.5 -4-14.9-16.6-24.7-30.9-24.1 -14.3 0.7-26.3 12.2-28.9 27.2 -0.6 3.2-0.1 4.9 3.5 4.3 4.5-0.8 4.4 2.1 4.1 5.1 -0.3 2.9 1.8 7.4-4.2 6.5 -3.8-0.6-3.9 1.6-3.9 4.4 0.1 16.5-0.1 33 0.1 49.5 0 3.6-1 4.4-4.5 4.4 -12-0.2-24-0.2-36 0 -3.3 0.1-4.2-0.9-4.2-4.2 0.2-16.3 0-32.7 0.1-49 0-3.6-0.5-5.8-4.8-5.1 -2.7 0.5-3.9-0.7-3.7-3.6 0.2-4.3-1.3-9.5 6.4-8 2.4 0.5 1.8-1.9 1.6-3.2 -1.7-12.4-8.2-21.4-19.7-26.1 -11.1-4.5-21.3-2.1-30.1 5.7 -6.1 5.3-9.6 12.2-10.8 20.3 -0.4 2.6 0.1 4 2.9 3.5 5.4-1 4.8 2.5 4.9 5.9 0.1 3.3 0.4 6.6-4.6 5.7 -3.6-0.6-3.5 1.8-3.5 4.3 0 16.5-0.1 33 0.1 49.5 0 3.4-0.8 4.6-4.4 4.5 -11.8-0.2-23.7-0.2-35.5 0 -3.7 0.1-4.8-0.8-4.8-4.6 0.2-16.2 0-32.3 0.1-48.5 0-3.5-0.2-6-4.7-5.2 -2.7 0.5-4-0.6-3.8-3.6 0.3-4.2-1.4-9.6 6.3-8.1 2.4 0.5 1.8-1.9 1.6-3.2 -1.4-11.2-7.1-19.7-17-24.9 -3.5-1.8-3.5-3.1-1.7-6.2 11.4-19.2 25.4-36.2 40.5-52.5 1.9-2 4-2 6.4-2C353.7 324.4 388.1 324.4 422.4 324.4z"/><path class="st54" d="M821.1 648.1c-0.3 1.5-1.2 2.2-2.5 2.1 -1.4-0.1-2.1-1-1.9-2.3 0.1-1.3 0.9-2 2.3-1.9C820.4 646.2 820.8 647.1 821.1 648.1z"/><path class="st55" d="M614.1 779.2c-0.3 0-0.7-0.2-1-0.1 -1.3 0.1-2.7 0.5-3.2-1.3 -0.2-0.8 0-1.7 0.8-2.1 1.9-1.1 2.5 0.8 3.5 1.7C614.7 778 614.6 778.6 614.1 779.2z"/><path class="st56" d="M844 649.6c-1.1-0.3-1.9-0.8-1.8-2 0.1-1.2 1-1.7 2.1-1.6 1.1 0.1 1.9 0.7 1.8 1.9C845.9 649.1 845.1 649.5 844 649.6z"/><path class="st57" d="M731.3 665.6c-0.2 1.5-0.9 2.2-2 2.1 -1.1-0.1-1.9-0.9-1.8-2 0.1-1.1 0.9-1.7 2-1.7C730.8 664 731.1 664.8 731.3 665.6z"/><path class="st58" d="M827.7 637.5c1.3 0.1 2.1 0.6 2.2 1.8 0.1 1.2-0.7 1.8-1.8 1.9 -1.1 0.1-1.9-0.5-2-1.7C826 638.3 826.9 637.9 827.7 637.5z"/><path class="st59" d="M571.2 807c-0.4 1.6-1.4 2.1-2.6 1.9 -1-0.2-1.8-0.9-1.6-2.1 0.2-1.4 1.2-1.9 2.5-1.6C570.5 805.3 571.1 806.1 571.2 807z"/><path class="st60" d="M835 662.1c0 1.4-0.6 2.1-1.7 2.2 -1.1 0.1-1.9-0.4-2.1-1.5 -0.2-1.2 0.6-1.8 1.6-1.9C833.9 660.7 834.6 661.3 835 662.1z"/><path class="st61" d="M764.5 669.4c1 0.3 1.9 0.7 1.7 2 -0.1 0.9-0.9 1.4-1.7 1.4 -1.1 0-2-0.5-2-1.7C762.5 669.9 763.5 669.5 764.5 669.4z"/><path class="st59" d="M828.2 651.5c0.3-1.1 1.1-1.5 2.2-1.5 1.1 0 2 0.5 1.9 1.6 -0.1 1.1-1 1.5-2.1 1.5C829.1 653.1 828.3 652.7 828.2 651.5z"/><path class="st62" d="M603.5 780.1c0-0.9 0.6-1.6 1.4-1.7 1.1-0.2 1.8 0.5 2 1.6 0.1 0.9-0.6 1.6-1.4 1.7C604.4 781.9 603.7 781.2 603.5 780.1z"/><path class="st63" d="M648.6 676.7c-0.4 1.4-1.4 1.6-2.4 1.5 -1-0.1-2.1-0.4-1.8-1.7 0.2-1.1 1.2-1.4 2.3-1.4C647.8 675.2 648.3 675.9 648.6 676.7z"/><path class="st64" d="M638.9 689c-0.1 1.1-0.7 1.9-1.8 1.9 -1.1 0.1-1.9-0.6-1.9-1.7 -0.1-1.2 0.7-1.9 1.7-2C638.1 687.2 638.6 688 638.9 689z"/><path class="st65" d="M840.8 671c-1.2-0.1-1.9-0.6-1.8-1.8 0.1-1 1-1.2 1.8-1.2 1 0 2.2 0.2 2.2 1.5C842.9 670.6 841.9 671 840.8 671z"/><path class="st66" d="M653.9 683.8c-0.3 1.2-1.2 1.6-2.2 1.5 -1.1-0.2-1.7-1-1.4-2.1 0.2-0.9 0.9-1.3 1.8-1.3C653.2 682 653.8 682.7 653.9 683.8z"/><path class="st67" d="M606.1 661.4c-0.2 1-1 1.5-2.1 1.3 -0.8-0.1-1.6-0.6-1.6-1.5 0-1.3 1.1-1.6 2.1-1.5C605.4 659.8 606.1 660.2 606.1 661.4z"/><path class="st68" d="M598 713c-1.5 0.1-3.3 0.6-3.6-1.5 -0.2-1 1-1.6 2.1-1.5 2.3 0.2 2.3 1.4 1.4 3.1C597.9 713.1 598 713 598 713z"/><path class="st69" d="M612.5 694.2c2.3-1.4 3.8-1.5 6.1 0.2C616.3 695.3 614.8 695.4 612.5 694.2z"/><path class="st70" d="M827.8 658.9c-0.2 0.9-0.8 1.5-1.7 1.4 -1 0-1.6-0.6-1.5-1.6 0.1-0.8 0.7-1.6 1.7-1.5C827.2 657.4 827.6 658.1 827.8 658.9z"/><path class="st71" d="M841.8 658.5c0.1 1.3-0.7 1.7-1.5 1.8 -1 0.1-2 0-2.1-1.3 -0.1-1 0.7-1.5 1.4-1.7C840.7 657.1 841.4 657.8 841.8 658.5z"/><path class="st72" d="M627.7 691.2c0.9 0 1.7 0.4 1.8 1.3 0.2 1.3-0.7 1.7-1.8 1.7 -1 0-1.6-0.5-1.6-1.5C626.1 691.9 626.7 691.3 627.7 691.2z"/><path class="st58" d="M745.8 673.1c-0.3 1.1-1.2 1.4-2.2 1.2 -0.9-0.1-1.6-0.6-1.4-1.6 0.2-1.1 1.1-1.7 2.2-1.4C745.1 671.5 745.7 672.1 745.8 673.1z"/><path class="st73" d="M723.3 659c0.9 0 1.7 0.3 1.8 1.2 0.1 1.2-0.5 1.8-1.7 1.8 -0.9 0-1.6-0.4-1.8-1.3C721.5 659.6 722.3 659.1 723.3 659z"/><path class="st74" d="M781.8 674.1c-0.9 0-1.6-0.5-1.6-1.4 0-1.2 0.7-1.7 1.9-1.6 0.9 0 1.6 0.6 1.7 1.4C783.7 673.6 782.9 674.2 781.8 674.1z"/><path class="st75" d="M845.9 662.1c1.1 0 1.5 0.8 1.5 1.6 0.1 1-0.3 2.1-1.5 2.1 -0.8 0-1.5-0.7-1.6-1.6C844.2 663.1 844.9 662.4 845.9 662.1z"/><path class="st76" d="M849 675.5c-0.2 1.2-0.8 1.8-2 1.6 -1-0.2-1.2-1-1.2-1.8 0-0.9 0.5-1.7 1.4-1.7C848.4 673.6 849 674.4 849 675.5z"/><path class="st31" d="M750.4 670c-0.8-0.3-1.3-0.9-1.1-1.8 0.2-0.9 0.8-1.5 1.7-1 0.5 0.2 1 0.9 0.9 1.4C751.9 669.4 751.4 670.1 750.4 670z"/><path class="st75" d="M815.9 686.4c0.8 0.3 1.4 0.7 1.3 1.7 -0.1 1-0.8 1.4-1.6 1.3 -0.8-0.1-1.5-0.6-1.4-1.6C814.4 686.9 815 686.5 815.9 686.4z"/><path class="st77" d="M697.5 665.9c-0.2 1-0.8 1.4-1.7 1.3 -0.9-0.1-1.5-0.7-1.3-1.6 0.2-0.8 0.8-1.5 1.7-1.3C697.1 664.4 697.4 665.1 697.5 665.9z"/><path class="st65" d="M592.1 784.3c1.3-0.6 2.6-0.7 2.9 1.1 0.2 1.1-0.5 2-1.6 1.8 -1.9-0.3-1.3-1.8-1.2-3C592.2 784.2 592.1 784.3 592.1 784.3z"/><path class="st78" d="M747.5 657.2c1.1-0.1 1.6 0.5 1.7 1.3 0.1 0.9-0.3 1.6-1.3 1.6 -0.9 0-1.6-0.4-1.7-1.3C746.2 657.9 746.8 657.4 747.5 657.2z"/><path class="st79" d="M715.4 655.1c1 0 1.5 0.7 1.5 1.5 0 0.9-0.6 1.6-1.5 1.5 -0.5-0.1-1.1-0.7-1.2-1.2C714 656 714.5 655.4 715.4 655.1z"/><path class="st80" d="M624.1 683.3c2.1 2.4 1.9 3.7 1 5.2C623 687.2 624.3 685.7 624.1 683.3z"/><path class="st81" d="M637.2 682.5c-0.5 1.1-1.5 1-2.4 0.9 -0.8-0.1-1.8-0.5-1.2-1.5 0.3-0.5 1.4-0.7 2.1-0.8C636.5 681 637.2 681.4 637.2 682.5z"/><path class="st73" d="M614.1 779.2c0-0.6 0-1.2 0.1-1.8 1.5-0.5 3-0.3 2.6 1.5C616.5 780.4 615.2 780.8 614.1 779.2z"/><path class="st81" d="M817.3 636.1c-0.8 0-1.8 0-2-0.9 -0.3-1.4 1-1.4 1.8-1.4 0.7 0 1.7 0 1.8 1.1C819 635.9 818.1 636 817.3 636.1z"/><path class="st82" d="M797.4 672c-0.1 0.8-0.6 1.4-1.5 1.4 -0.8 0-1.6-0.5-1.5-1.5 0.1-0.9 0.7-1.5 1.6-1.5C796.9 670.3 797.3 671.1 797.4 672z"/><path class="st63" d="M676.9 669.1c-0.9-0.2-1.4-0.8-1.3-1.7 0.1-0.8 0.7-1.4 1.7-1.3 0.9 0.1 1.4 0.8 1.3 1.7C678.4 668.7 677.8 669.2 676.9 669.1z"/><path class="st33" d="M601 779.4c-0.1 1-0.4 1.5-1.1 1.6 -1 0.1-1.6-0.5-1.5-1.3 0.1-0.5 0.8-1.1 1.3-1.2C600.1 778.5 600.6 779.1 601 779.4z"/><path class="st83" d="M646 687.5c0.2 1.3-0.5 1.8-1.3 1.8 -0.5 0-1.2-0.5-1.4-1 -0.4-0.9 0.2-1.6 1.1-1.8C645.3 686.3 645.7 687 646 687.5z"/><path class="st84" d="M689.1 654.8c-0.1 0.7-0.5 1.2-1.3 1.2 -0.9 0-1.7-0.3-1.6-1.4 0.1-0.8 0.8-1 1.5-1C688.4 653.6 689 654 689.1 654.8z"/><path class="st34" d="M691.8 671.1c-0.6-0.6-1.3-0.9-1.4-1.4 -0.3-1 0.4-1.6 1.2-1.5 0.4 0 1.2 0.7 1.2 1.2C692.9 669.8 692.3 670.3 691.8 671.1z"/><path class="st85" d="M771.3 670c0.7-0.1 1.3 0.2 1.4 1 0.2 1-0.4 1.6-1.2 1.8 -0.3 0.1-1-0.8-1.2-1.3C770.1 670.7 770.6 670.2 771.3 670z"/><path class="st54" d="M801.8 681.5c1.1 0.2 1.5 0.7 1.4 1.4 0 0.7-0.6 1.2-1.3 1.1 -0.8-0.1-1.7-0.5-1.3-1.5C800.8 682 801.5 681.7 801.8 681.5z"/><path class="st36" d="M680 675.5c0 1-0.3 1.5-1.1 1.6 -1 0.1-1.6-0.4-1.5-1.3 0.1-0.5 0.8-1.1 1.3-1.1C679.2 674.6 679.7 675.2 680 675.5z"/><path class="st86" d="M660.1 683.9c-0.9-0.2-1-0.8-0.9-1.4 0-0.6 0.1-1.3 1-1.2 0.8 0.1 1 0.7 0.9 1.4C661 683.3 660.7 683.8 660.1 683.9z"/><path class="st87" d="M582.2 795.1c1.1 0.3 2.3 0.6 2 2.2 -0.2 0.9-0.9 1.1-1.5 0.8 -1.3-0.8-0.6-2-0.4-3.1C582.3 795 582.2 795.1 582.2 795.1z"/><path class="st65" d="M586 791.2c0 0.8-0.7 1-1.3 1 -0.8 0-1.7-0.3-1.4-1.3 0.1-0.4 0.9-0.8 1.5-0.8C585.5 790 586 790.5 586 791.2z"/><path class="st88" d="M619.4 773.5c0.4 1.6-0.4 1.9-0.9 2 -0.8 0.2-1.8-0.1-1.8-1.1 0-0.5 0.6-1.3 1-1.4C618.6 772.7 619.3 773.2 619.4 773.5z"/><path class="st89" d="M696.7 642.4c-0.4 0.2-0.9 0.7-1.4 0.7 -1 0.1-1.5-0.6-1.2-1.5 0.1-0.4 1-0.6 1.6-0.6C696.2 640.9 696.8 641.3 696.7 642.4z"/><path class="st90" d="M729.8 643.2c-0.4 0.2-0.8 0.8-1.3 0.9 -0.7 0.1-1.3-0.5-1.2-1.2 0.1-0.5 0.7-1.1 1.2-1.2C729.1 641.6 729.6 642.2 729.8 643.2z"/><path class="st0" d="M677 645.3c0.3 0.2 0.8 0.4 1 0.8 0.4 0.7 0 1.3-0.7 1.5 -0.3 0.1-0.9-0.3-1.1-0.6C675.8 646.3 676.3 645.8 677 645.3z"/><path class="st87" d="M755.2 674.7c-0.2 1-0.5 1.5-1.2 1.5 -0.8 0-1.1-0.6-1.1-1.2 0-0.8 0.3-1.7 1.4-1.4C754.7 673.7 755 674.5 755.2 674.7z"/><path class="st91" d="M632.9 675.2c-0.6 0-1.3-0.1-1.4-0.8 -0.1-0.8 0.6-1.2 1.2-1.2 0.4 0 0.9 0.4 1.1 0.7C634 674.6 633.6 675.1 632.9 675.2z"/><path class="st0" d="M657 675c1 0.2 1.7 0.4 1.5 1.2 -0.1 0.3-0.6 0.8-1 0.8 -0.6 0-1.3-0.3-1.1-1.1C656.5 675.5 656.8 675.2 657 675z"/><path class="st66" d="M624.9 676.8c-0.1 1.1-0.7 1.3-1.3 1.4 -0.9 0.1-1.6-0.4-1.4-1.4 0.1-0.7 0.8-0.9 1.5-0.8C624.2 676 624.8 676.2 624.9 676.8z"/><path class="st92" d="M654.3 668.2c1 0.1 1.6 0.3 1.7 1.1 0.1 0.8-0.4 1.3-1.1 1.4 -0.7 0.1-1.4-0.4-1.3-1.1C653.6 669.1 654.1 668.6 654.3 668.2z"/><path class="st73" d="M702.2 656.5c-0.2 0.3-0.5 1.1-0.9 1.2 -1 0.3-1.3-0.6-1.4-1.3 0-0.6 0.2-1.2 1-1.3C701.8 655 702.1 655.6 702.2 656.5z"/><path class="st64" d="M595.5 680.4c-0.5-0.2-1.3-0.2-1.2-1.1 0.2-1 0.9-1.2 1.7-1.1 0.8 0.1 1.1 0.7 0.9 1.4C596.9 680.2 596.3 680.4 595.5 680.4z"/><path class="st93" d="M774.8 662.8c0.7 0.2 1.1 0.7 1.1 1.4 0 0.7-0.4 1.3-1.1 1.3 -0.9 0-0.9-0.8-0.9-1.4C773.9 663.5 773.9 662.9 774.8 662.8z"/><path class="st33" d="M790.1 661.4c-0.8 0.6-1.3 1.2-1.7 1.2 -0.5 0-1.1-0.7-1.2-1.2 -0.1-0.7 0.5-1.3 1.2-1.2C788.9 660.3 789.3 660.8 790.1 661.4z"/><path class="st94" d="M763.3 659.6c-0.7 0.5-1.2 1.3-1.7 1.2 -0.5 0-0.9-0.8-1.3-1.2 0.4-0.4 0.9-1.2 1.3-1.2C762.1 658.3 762.6 659 763.3 659.6z"/><path class="st59" d="M740.7 666c-0.1-0.1-0.3-0.6-0.4-1 -0.2-1.1 0.7-0.9 1.3-0.9 0.4 0 1.1 0.4 1.1 0.6C742.7 665.5 741.9 665.7 740.7 666z"/><path class="st95" d="M459.9 759.6c2.2 0.4 4.1 1.2 5.5 3C463.3 762.2 461.3 761.4 459.9 759.6z"/><path class="st96" d="M461.3 766.1c1.7 0.3 3.1 0.9 4.6 2.6 -2.2 0.1-3.6-1-5-1.9C461 766.8 461.2 766.4 461.3 766.1z"/><path class="st97" d="M452.2 737.3c-3 1.6-4.4-0.5-7.4-0.1C448.1 735.3 449.5 737.3 452.2 737.3z"/><path class="st98" d="M448 743.6c3.1-0.9 4.7 0.4 6.7 1C452.3 745.7 450.7 744.2 448 743.6z"/><path class="st96" d="M432 702c-0.7-0.4-2-0.8-2-1.2 0-1.4 1-0.6 1.6-0.4 0.4 0.1 0.6 0.6 1 1C432.4 701.6 432.2 701.8 432 702z"/><path class="st99" d="M458.6 753.3c1.8-0.4 2.5 0.2 3.1 1.1C460.3 755.1 459.6 754.3 458.6 753.3z"/></svg>